<svg xmlns="http://www.w3.org/2000/svg" xmlns:xlink="http://www.w3.org/1999/xlink" width="500" zoomAndPan="magnify" viewBox="0 0 375 374.999991" height="500" preserveAspectRatio="xMidYMid meet" version="1.0"><defs><g/><clipPath id="3b023e39fd"><path d="M 10.046875 9.660156 L 364.796875 9.660156 L 364.796875 364.410156 L 10.046875 364.410156 Z M 10.046875 9.660156 " clip-rule="nonzero"/></clipPath><clipPath id="c4da1b55d3"><path d="M 31.417969 30.613281 L 344.167969 30.613281 L 344.167969 343.363281 L 31.417969 343.363281 Z M 31.417969 30.613281 " clip-rule="nonzero"/></clipPath><clipPath id="281e52ec35"><path d="M 17.414062 16.609375 L 358.664062 16.609375 L 358.664062 357.859375 L 17.414062 357.859375 Z M 17.414062 16.609375 " clip-rule="nonzero"/></clipPath><clipPath id="3ca9e7149a"><path d="M 70.304688 69.5 L 305.804688 69.5 L 305.804688 305 L 70.304688 305 Z M 70.304688 69.5 " clip-rule="nonzero"/></clipPath><clipPath id="9d6804008a"><path d="M 28.328125 27.523438 L 347.828125 27.523438 L 347.828125 347 L 28.328125 347 Z M 28.328125 27.523438 " clip-rule="nonzero"/></clipPath></defs><g clip-path="url(#3b023e39fd)"><path fill="#ffffff" d="M 187.496094 9.660156 C 89.457031 9.660156 10.046875 89.070312 10.046875 187.109375 C 10.046875 285.152344 89.457031 364.5625 187.496094 364.5625 C 285.539062 364.5625 364.949219 285.152344 364.949219 187.109375 C 364.949219 89.070312 285.539062 9.660156 187.496094 9.660156 Z M 187.496094 329.070312 C 109.0625 329.070312 45.535156 265.542969 45.535156 187.109375 C 45.535156 108.675781 109.0625 45.148438 187.496094 45.148438 C 265.929688 45.148438 329.457031 108.675781 329.457031 187.109375 C 329.457031 265.542969 265.929688 329.070312 187.496094 329.070312 Z M 187.496094 329.070312 " fill-opacity="1" fill-rule="nonzero"/></g><g clip-path="url(#c4da1b55d3)"><path fill="#000000" d="M 187.792969 30.613281 C 101.394531 30.613281 31.417969 100.589844 31.417969 186.988281 C 31.417969 273.382812 101.394531 343.363281 187.792969 343.363281 C 274.1875 343.363281 344.167969 273.382812 344.167969 186.988281 C 344.167969 100.589844 274.1875 30.613281 187.792969 30.613281 Z M 187.792969 312.085938 C 118.675781 312.085938 62.691406 256.105469 62.691406 186.988281 C 62.691406 117.871094 118.675781 61.886719 187.792969 61.886719 C 256.910156 61.886719 312.890625 117.871094 312.890625 186.988281 C 312.890625 256.105469 256.910156 312.085938 187.792969 312.085938 Z M 187.792969 312.085938 " fill-opacity="1" fill-rule="nonzero"/></g><g clip-path="url(#281e52ec35)"><path fill="#000000" d="M 188.039062 16.609375 C 93.769531 16.609375 17.414062 92.964844 17.414062 187.234375 C 17.414062 281.507812 93.769531 357.859375 188.039062 357.859375 C 282.3125 357.859375 358.664062 281.507812 358.664062 187.234375 C 358.664062 92.964844 282.3125 16.609375 188.039062 16.609375 Z M 188.039062 323.734375 C 112.625 323.734375 51.539062 262.652344 51.539062 187.234375 C 51.539062 111.820312 112.625 50.734375 188.039062 50.734375 C 263.457031 50.734375 324.539062 111.820312 324.539062 187.234375 C 324.539062 262.652344 263.457031 323.734375 188.039062 323.734375 Z M 188.039062 323.734375 " fill-opacity="1" fill-rule="nonzero"/></g><g clip-path="url(#3ca9e7149a)"><path fill="#000001" d="M 196.828125 245.847656 L 145.324219 297.351562 C 141.738281 300.941406 135.851562 300.953125 132.246094 297.386719 L 80.136719 245.8125 C 76.53125 242.246094 77.734375 239.328125 82.804688 239.328125 L 194.125 239.328125 C 199.199219 239.328125 200.414062 242.261719 196.828125 245.847656 Z M 181.988281 135.179688 L 293.3125 135.179688 C 298.382812 135.179688 299.582031 132.261719 295.976562 128.691406 L 243.867188 77.121094 C 240.261719 73.550781 234.378906 73.566406 230.792969 77.152344 L 179.289062 128.660156 C 175.703125 132.246094 176.917969 135.179688 181.988281 135.179688 Z M 229.171875 219.785156 L 150.453125 298.5 C 146.867188 302.085938 148.085938 305 153.15625 304.972656 L 226.472656 304.59375 C 231.542969 304.566406 235.691406 300.394531 235.691406 295.324219 L 235.691406 222.484375 C 235.691406 217.414062 232.757812 216.199219 229.171875 219.785156 Z M 146.945312 154.722656 L 225.660156 76.003906 C 229.246094 72.417969 228.03125 69.507812 222.960938 69.53125 L 149.644531 69.914062 C 144.574219 69.9375 140.421875 74.109375 140.421875 79.183594 L 140.421875 152.023438 C 140.421875 157.09375 143.359375 158.308594 146.945312 154.722656 Z M 246.652344 178.484375 C 243.066406 174.898438 240.132812 176.113281 240.132812 181.183594 L 240.132812 292.507812 C 240.132812 297.578125 243.050781 298.777344 246.617188 295.171875 L 298.191406 243.0625 C 301.757812 239.457031 301.746094 233.574219 298.15625 229.988281 Z M 129.464844 196.023438 C 133.050781 199.609375 135.984375 198.394531 135.984375 193.324219 L 135.984375 82 C 135.984375 76.929688 133.066406 75.726562 129.496094 79.332031 L 77.925781 131.445312 C 74.355469 135.046875 74.371094 140.933594 77.957031 144.519531 Z M 305.398438 148.839844 C 305.371094 143.769531 301.199219 139.617188 296.128906 139.617188 L 223.289062 139.617188 C 218.21875 139.617188 217.003906 142.554688 220.589844 146.140625 L 299.304688 224.855469 C 302.890625 228.441406 305.804688 227.226562 305.777344 222.15625 Z M 152.828125 234.886719 C 157.898438 234.886719 159.113281 231.953125 155.527344 228.367188 L 76.808594 149.648438 C 73.222656 146.0625 70.3125 147.277344 70.335938 152.351562 L 70.71875 225.667969 C 70.742188 230.738281 74.914062 234.886719 79.988281 234.886719 Z M 152.828125 234.886719 " fill-opacity="1" fill-rule="nonzero"/></g><g clip-path="url(#9d6804008a)"><path fill="#ffffff" d="M 187.914062 346.695312 C 99.945312 346.695312 28.328125 275.078125 28.328125 187.109375 C 28.328125 99.140625 99.945312 27.523438 187.914062 27.523438 C 275.882812 27.523438 347.5 99.140625 347.5 187.109375 C 347.5 275.078125 275.882812 346.695312 187.914062 346.695312 Z M 187.914062 29.882812 C 101.203125 29.882812 30.6875 100.398438 30.6875 187.109375 C 30.6875 273.820312 101.203125 344.339844 187.914062 344.339844 C 274.625 344.339844 345.144531 273.820312 345.144531 187.109375 C 345.144531 100.398438 274.625 29.882812 187.914062 29.882812 Z M 187.914062 29.882812 " fill-opacity="1" fill-rule="nonzero"/></g><g fill="#ffffff" fill-opacity="1"><g transform="translate(53.533358, 182.251082)"><g><path d="M -17.6875 -3.5 C -17.6875 -3.476562 -17.695312 -3.503906 -17.71875 -3.578125 C -17.71875 -3.671875 -17.691406 -3.9375 -17.640625 -4.375 C -17.585938 -4.820312 -17.515625 -5.46875 -17.421875 -6.3125 L -17.109375 -9.25 L 2.8125 -7.0625 L 2.234375 -1.796875 L -7.359375 -2.859375 C -10.566406 -3.203125 -12.972656 -3.457031 -14.578125 -3.625 C -16.191406 -3.800781 -17.035156 -3.878906 -17.109375 -3.859375 C -17.347656 -3.835938 -17.539062 -3.71875 -17.6875 -3.5 Z M -17.03125 -9.953125 L -16.8125 -11.90625 C -16.75 -12.414062 -16.695312 -12.84375 -16.65625 -13.1875 C -16.625 -13.53125 -16.59375 -13.800781 -16.5625 -14 C -16.519531 -14.175781 -16.472656 -14.351562 -16.421875 -14.53125 C -16.378906 -14.707031 -16.316406 -14.878906 -16.234375 -15.046875 C -16.054688 -15.503906 -15.804688 -15.9375 -15.484375 -16.34375 C -15.160156 -16.757812 -14.789062 -17.128906 -14.375 -17.453125 C -13.96875 -17.773438 -13.519531 -18.039062 -13.03125 -18.25 C -12.550781 -18.457031 -12.078125 -18.609375 -11.609375 -18.703125 C -9.929688 -19.035156 -8.394531 -18.75 -7 -17.84375 C -6.1875 -17.34375 -5.535156 -16.707031 -5.046875 -15.9375 C -4.566406 -15.164062 -4.242188 -14.3125 -4.078125 -13.375 C -3.992188 -12.71875 -4.03125 -11.648438 -4.1875 -10.171875 L -4.375 -8.5625 L -8.109375 -8.96875 L -8 -10.03125 C -7.925781 -10.707031 -7.894531 -11.132812 -7.90625 -11.3125 C -8.1875 -12.550781 -9.035156 -13.203125 -10.453125 -13.265625 C -11.460938 -13.328125 -12.144531 -13.023438 -12.5 -12.359375 C -12.59375 -12.191406 -12.691406 -11.664062 -12.796875 -10.78125 L -12.9375 -9.5 Z M -17.03125 -9.953125 "/></g></g></g><g fill="#ffffff" fill-opacity="1"><g transform="translate(55.291562, 164.968458)"><g><path d="M -17.046875 -5.84375 C -17.003906 -6.019531 -16.960938 -6.234375 -16.921875 -6.484375 C -16.867188 -6.691406 -16.804688 -6.945312 -16.734375 -7.25 C -16.660156 -7.5625 -16.570312 -7.925781 -16.46875 -8.34375 L -15.65625 -11.609375 L 3.78125 -6.71875 L 2.453125 -1.4375 L -6.984375 -3.8125 L -8.515625 -4.203125 C -10.546875 -4.710938 -12.148438 -5.113281 -13.328125 -5.40625 C -14.515625 -5.707031 -15.28125 -5.890625 -15.625 -5.953125 C -16.300781 -6.109375 -16.695312 -6.15625 -16.8125 -6.09375 C -16.84375 -6.070312 -16.859375 -6.0625 -16.859375 -6.0625 C -16.953125 -5.96875 -17.015625 -5.894531 -17.046875 -5.84375 Z M -14.234375 -16.90625 L -14.359375 -16.71875 L -12.921875 -22.453125 L 6.515625 -17.5625 L 5.21875 -12.390625 L -4.25 -14.78125 C -10.550781 -16.363281 -13.765625 -17.140625 -13.890625 -17.109375 C -13.941406 -17.109375 -14 -17.085938 -14.0625 -17.046875 C -14.132812 -17.015625 -14.191406 -16.96875 -14.234375 -16.90625 Z M -8.25 -10.359375 L -7.125 -14.859375 L -3.171875 -13.875 L -4.296875 -9.375 Z M -8.25 -10.359375 "/></g></g></g><g fill="#ffffff" fill-opacity="1"><g transform="translate(59.951182, 145.974095)"><g><path d="M -13.046875 -15.96875 C -13.035156 -16.101562 -13.007812 -16.222656 -12.96875 -16.328125 C -12.9375 -16.390625 -12.910156 -16.453125 -12.890625 -16.515625 L -12.859375 -16.640625 L -10.953125 -15.84375 C -9.648438 -15.300781 -9.007812 -15.003906 -9.03125 -14.953125 C -9.132812 -14.691406 -9.175781 -14.265625 -9.15625 -13.671875 C -9.0625 -11.929688 -7.507812 -10.476562 -4.5 -9.3125 C -4 -9.125 -3.425781 -8.953125 -2.78125 -8.796875 C -2.132812 -8.640625 -1.484375 -8.554688 -0.828125 -8.546875 C -0.179688 -8.535156 0.425781 -8.644531 1 -8.875 C 1.582031 -9.101562 2.039062 -9.5 2.375 -10.0625 L 2.453125 -10.234375 L 4.28125 -9.5 L 6.140625 -8.734375 L 6.046875 -8.484375 C 5.773438 -7.835938 5.425781 -7.226562 5 -6.65625 C 4.582031 -6.082031 4.109375 -5.566406 3.578125 -5.109375 C 3.054688 -4.660156 2.476562 -4.273438 1.84375 -3.953125 C 1.21875 -3.640625 0.554688 -3.414062 -0.140625 -3.28125 C -1.710938 -2.957031 -3.484375 -3.0625 -5.453125 -3.59375 C -5.597656 -3.644531 -5.800781 -3.722656 -6.0625 -3.828125 C -6.332031 -3.941406 -6.65625 -4.078125 -7.03125 -4.234375 C -7.394531 -4.378906 -7.707031 -4.507812 -7.96875 -4.625 C -8.226562 -4.738281 -8.441406 -4.84375 -8.609375 -4.9375 C -9.335938 -5.375 -10.019531 -5.890625 -10.65625 -6.484375 C -11.289062 -7.078125 -11.832031 -7.726562 -12.28125 -8.4375 C -12.726562 -9.15625 -13.066406 -9.921875 -13.296875 -10.734375 C -13.523438 -11.546875 -13.613281 -12.40625 -13.5625 -13.3125 C -13.539062 -14.15625 -13.367188 -15.039062 -13.046875 -15.96875 Z M -10.71875 -16.40625 L -12.625 -17.203125 L -12.53125 -17.4375 C -12.25 -18.101562 -11.878906 -18.71875 -11.421875 -19.28125 C -10.972656 -19.851562 -10.46875 -20.363281 -9.90625 -20.8125 C -9.351562 -21.257812 -8.75 -21.640625 -8.09375 -21.953125 C -7.4375 -22.265625 -6.753906 -22.484375 -6.046875 -22.609375 C -4.390625 -22.921875 -2.71875 -22.847656 -1.03125 -22.390625 C -0.875 -22.367188 -0.664062 -22.304688 -0.40625 -22.203125 C -0.15625 -22.109375 0.128906 -21.992188 0.453125 -21.859375 C 1.398438 -21.429688 2.289062 -20.925781 3.125 -20.34375 C 3.957031 -19.757812 4.6875 -19.046875 5.3125 -18.203125 C 6.164062 -17.023438 6.707031 -15.769531 6.9375 -14.4375 C 7.175781 -13.101562 7.09375 -11.710938 6.6875 -10.265625 C 6.65625 -10.117188 6.625 -10 6.59375 -9.90625 C 6.5625 -9.8125 6.53125 -9.726562 6.5 -9.65625 L 6.421875 -9.46875 L 5.453125 -9.828125 C 4.835938 -10.054688 4.234375 -10.3125 3.640625 -10.59375 L 2.75 -10.984375 L 2.8125 -11.328125 C 2.882812 -12.015625 2.804688 -12.625 2.578125 -13.15625 C 2.359375 -13.695312 2.046875 -14.171875 1.640625 -14.578125 C 1.234375 -14.984375 0.765625 -15.34375 0.234375 -15.65625 C -0.296875 -15.976562 -0.84375 -16.269531 -1.40625 -16.53125 C -2.625 -17.082031 -3.800781 -17.40625 -4.9375 -17.5 C -6.707031 -17.632812 -7.929688 -17.140625 -8.609375 -16.015625 L -8.84375 -15.671875 Z M -10.71875 -16.40625 "/></g></g></g><g fill="#ffffff" fill-opacity="1"><g transform="translate(67.934716, 127.01838)"><g><path d="M -15.296875 -9.53125 L -7.375 -23.09375 L -3.84375 -21.046875 L -11.765625 -7.484375 Z M -8.46875 -11.296875 L -8.640625 -11.25 L -5.75 -16.21875 L 7.34375 -8.5625 L 4.640625 -3.921875 L -1.609375 -7.578125 C -3.765625 -8.835938 -5.382812 -9.78125 -6.46875 -10.40625 C -7.550781 -11.039062 -8.113281 -11.359375 -8.15625 -11.359375 C -8.226562 -11.378906 -8.332031 -11.359375 -8.46875 -11.296875 Z M -8.46875 -11.296875 "/></g></g></g><g fill="#ffffff" fill-opacity="1"><g transform="translate(75.698576, 113.263267)"><g><path d="M -8.34375 -18.84375 C -8.289062 -18.976562 -8.226562 -19.09375 -8.15625 -19.1875 C -8.113281 -19.238281 -8.070312 -19.289062 -8.03125 -19.34375 L -8 -19.453125 L -6.359375 -18.171875 C -5.242188 -17.304688 -4.703125 -16.851562 -4.734375 -16.8125 C -4.898438 -16.59375 -5.054688 -16.191406 -5.203125 -15.609375 C -5.578125 -13.910156 -4.460938 -12.097656 -1.859375 -10.171875 C -1.429688 -9.867188 -0.925781 -9.550781 -0.34375 -9.21875 C 0.238281 -8.882812 0.84375 -8.628906 1.46875 -8.453125 C 2.09375 -8.285156 2.710938 -8.226562 3.328125 -8.28125 C 3.941406 -8.34375 4.488281 -8.609375 4.96875 -9.078125 L 5.078125 -9.203125 L 6.65625 -8.03125 L 8.234375 -6.796875 L 8.078125 -6.59375 C 7.648438 -6.039062 7.15625 -5.539062 6.59375 -5.09375 C 6.03125 -4.65625 5.4375 -4.285156 4.8125 -3.984375 C 4.1875 -3.691406 3.53125 -3.476562 2.84375 -3.34375 C 2.15625 -3.207031 1.453125 -3.164062 0.734375 -3.21875 C -0.867188 -3.3125 -2.550781 -3.878906 -4.3125 -4.921875 C -4.445312 -5.003906 -4.625 -5.132812 -4.84375 -5.3125 C -5.070312 -5.488281 -5.347656 -5.703125 -5.671875 -5.953125 C -5.984375 -6.191406 -6.25 -6.398438 -6.46875 -6.578125 C -6.6875 -6.753906 -6.863281 -6.90625 -7 -7.03125 C -7.582031 -7.65625 -8.101562 -8.332031 -8.5625 -9.0625 C -9.019531 -9.800781 -9.367188 -10.578125 -9.609375 -11.390625 C -9.847656 -12.203125 -9.96875 -13.03125 -9.96875 -13.875 C -9.96875 -14.726562 -9.820312 -15.582031 -9.53125 -16.4375 C -9.300781 -17.238281 -8.90625 -18.039062 -8.34375 -18.84375 Z M -5.984375 -18.65625 L -7.625 -19.9375 L -7.46875 -20.125 C -7.019531 -20.695312 -6.5 -21.195312 -5.90625 -21.625 C -5.320312 -22.0625 -4.703125 -22.421875 -4.046875 -22.703125 C -3.398438 -22.984375 -2.71875 -23.1875 -2 -23.3125 C -1.28125 -23.4375 -0.5625 -23.46875 0.15625 -23.40625 C 1.84375 -23.257812 3.4375 -22.742188 4.9375 -21.859375 C 5.082031 -21.804688 5.265625 -21.695312 5.484375 -21.53125 C 5.703125 -21.363281 5.953125 -21.171875 6.234375 -20.953125 C 7.035156 -20.296875 7.757812 -19.578125 8.40625 -18.796875 C 9.0625 -18.015625 9.578125 -17.128906 9.953125 -16.140625 C 10.460938 -14.785156 10.648438 -13.429688 10.515625 -12.078125 C 10.390625 -10.734375 9.941406 -9.414062 9.171875 -8.125 C 9.097656 -8 9.03125 -7.890625 8.96875 -7.796875 C 8.914062 -7.710938 8.867188 -7.644531 8.828125 -7.59375 L 8.703125 -7.421875 L 7.859375 -8.046875 C 7.328125 -8.429688 6.8125 -8.832031 6.3125 -9.25 L 5.578125 -9.859375 L 5.71875 -10.1875 C 5.96875 -10.820312 6.050781 -11.425781 5.96875 -12 C 5.894531 -12.570312 5.71875 -13.109375 5.4375 -13.609375 C 5.164062 -14.117188 4.8125 -14.59375 4.375 -15.03125 C 3.945312 -15.476562 3.492188 -15.90625 3.015625 -16.3125 C 1.992188 -17.175781 0.953125 -17.800781 -0.109375 -18.1875 C -1.785156 -18.789062 -3.097656 -18.640625 -4.046875 -17.734375 L -4.390625 -17.4375 Z M -5.984375 -18.65625 "/></g></g></g><g fill="#ffffff" fill-opacity="1"><g transform="translate(88.790565, 97.043395)"><g/></g></g><g fill="#ffffff" fill-opacity="1"><g transform="translate(91.820086, 93.405516)"><g><path d="M -6.296875 -18.75 C -6.265625 -18.8125 -6.171875 -18.914062 -6.015625 -19.0625 C -5.867188 -19.21875 -5.660156 -19.40625 -5.390625 -19.625 C -4.960938 -19.976562 -4.535156 -20.304688 -4.109375 -20.609375 C -3.691406 -20.921875 -3.257812 -21.1875 -2.8125 -21.40625 C -2.375 -21.625 -1.898438 -21.800781 -1.390625 -21.9375 C -0.890625 -22.070312 -0.347656 -22.132812 0.234375 -22.125 C 1.171875 -22.125 2.054688 -21.890625 2.890625 -21.421875 C 2.960938 -21.378906 3.066406 -21.316406 3.203125 -21.234375 C 3.347656 -21.148438 3.492188 -21.046875 3.640625 -20.921875 C 3.796875 -20.796875 3.925781 -20.695312 4.03125 -20.625 C 4.132812 -20.550781 4.203125 -20.492188 4.234375 -20.453125 L 4.328125 -20.359375 L 0.4375 -16.875 L 0.203125 -17.0625 C -0.046875 -17.257812 -0.320312 -17.378906 -0.625 -17.421875 C -0.925781 -17.460938 -1.222656 -17.453125 -1.515625 -17.390625 C -1.816406 -17.335938 -2.101562 -17.238281 -2.375 -17.09375 C -2.65625 -16.945312 -2.90625 -16.773438 -3.125 -16.578125 C -3.945312 -15.835938 -4.019531 -15.066406 -3.34375 -14.265625 C -3.070312 -13.960938 -2.675781 -13.835938 -2.15625 -13.890625 C -1.632812 -13.953125 -0.859375 -14.226562 0.171875 -14.71875 C 1.003906 -15.09375 1.71875 -15.40625 2.3125 -15.65625 C 2.914062 -15.90625 3.441406 -16.097656 3.890625 -16.234375 C 4.304688 -16.347656 4.691406 -16.429688 5.046875 -16.484375 C 5.410156 -16.535156 5.75 -16.554688 6.0625 -16.546875 C 6.882812 -16.515625 7.664062 -16.316406 8.40625 -15.953125 C 9.144531 -15.597656 9.773438 -15.101562 10.296875 -14.46875 C 11.015625 -13.5625 11.441406 -12.644531 11.578125 -11.71875 C 11.710938 -10.789062 11.644531 -9.882812 11.375 -9 C 11.101562 -8.113281 10.664062 -7.265625 10.0625 -6.453125 C 9.46875 -5.640625 8.800781 -4.882812 8.0625 -4.1875 C 7.382812 -3.582031 6.679688 -3.082031 5.953125 -2.6875 C 5.222656 -2.300781 4.476562 -2.039062 3.71875 -1.90625 C 2.96875 -1.78125 2.195312 -1.800781 1.40625 -1.96875 C 0.625 -2.144531 -0.160156 -2.5 -0.953125 -3.03125 C -1.484375 -3.351562 -1.84375 -3.625 -2.03125 -3.84375 C -2.070312 -3.882812 -1.425781 -4.484375 -0.09375 -5.640625 L 1.90625 -7.4375 L 2.1875 -7.1875 C 2.59375 -6.875 3.0625 -6.6875 3.59375 -6.625 C 4.125 -6.5625 4.609375 -6.625 5.046875 -6.8125 C 5.160156 -6.875 5.285156 -6.953125 5.421875 -7.046875 C 5.554688 -7.140625 5.695312 -7.253906 5.84375 -7.390625 C 6.164062 -7.679688 6.425781 -8.023438 6.625 -8.421875 C 6.820312 -8.816406 6.835938 -9.242188 6.671875 -9.703125 C 6.546875 -10.097656 6.269531 -10.425781 5.84375 -10.6875 C 5.394531 -10.976562 4.988281 -11.109375 4.625 -11.078125 C 4.207031 -11.046875 3.304688 -10.6875 1.921875 -10 C 1.242188 -9.65625 0.628906 -9.367188 0.078125 -9.140625 C -0.460938 -8.910156 -0.945312 -8.734375 -1.375 -8.609375 C -2.632812 -8.242188 -3.722656 -8.207031 -4.640625 -8.5 C -5.554688 -8.789062 -6.441406 -9.453125 -7.296875 -10.484375 C -7.847656 -11.140625 -8.21875 -11.800781 -8.40625 -12.46875 C -8.601562 -13.144531 -8.660156 -13.816406 -8.578125 -14.484375 C -8.503906 -15.160156 -8.304688 -15.820312 -7.984375 -16.46875 C -7.660156 -17.125 -7.238281 -17.742188 -6.71875 -18.328125 C -6.632812 -18.398438 -6.550781 -18.484375 -6.46875 -18.578125 C -6.382812 -18.671875 -6.328125 -18.726562 -6.296875 -18.75 Z M -6.296875 -18.75 "/></g></g></g><g fill="#ffffff" fill-opacity="1"><g transform="translate(104.765513, 81.773933)"><g><path d="M -9.859375 -15.078125 L 3.015625 -24.0625 L 5.34375 -20.71875 L -7.53125 -11.734375 Z M -2.9375 -13.8125 L -3.125 -13.84375 L 1.59375 -17.140625 L 10.265625 -4.6875 L 5.859375 -1.609375 L 1.71875 -7.5625 C 0.289062 -9.601562 -0.773438 -11.140625 -1.484375 -12.171875 C -2.203125 -13.203125 -2.582031 -13.722656 -2.625 -13.734375 C -2.675781 -13.785156 -2.78125 -13.8125 -2.9375 -13.8125 Z M -2.9375 -13.8125 "/></g></g></g><g fill="#ffffff" fill-opacity="1"><g transform="translate(117.637737, 72.580416)"><g><path d="M -7.28125 -16.390625 L -7.53125 -16.390625 L -1.671875 -19.4375 L 1.640625 -13.109375 L 4.875 -6.859375 L 5.21875 -6.578125 C 5.800781 -5.984375 6.613281 -5.773438 7.65625 -5.953125 C 7.875 -6.046875 8.007812 -6.046875 8.0625 -5.953125 C 8.070312 -5.910156 8.148438 -5.75 8.296875 -5.46875 C 8.441406 -5.1875 8.644531 -4.769531 8.90625 -4.21875 L 9.75 -2.59375 C 9.09375 -2.257812 8.414062 -1.953125 7.71875 -1.671875 C 7.019531 -1.390625 6.285156 -1.265625 5.515625 -1.296875 C 4.640625 -1.265625 3.789062 -1.40625 2.96875 -1.71875 C 2.15625 -2.039062 1.445312 -2.503906 0.84375 -3.109375 C 0.664062 -3.296875 0.5 -3.492188 0.34375 -3.703125 C 0.1875 -3.921875 0.03125 -4.15625 -0.125 -4.40625 C -0.269531 -4.644531 -0.585938 -5.226562 -1.078125 -6.15625 C -1.566406 -7.09375 -2.222656 -8.347656 -3.046875 -9.921875 L -3.625 -11.046875 C -4.28125 -12.335938 -4.804688 -13.359375 -5.203125 -14.109375 C -5.597656 -14.867188 -5.859375 -15.351562 -5.984375 -15.5625 C -6.222656 -15.957031 -6.453125 -16.203125 -6.671875 -16.296875 C -6.898438 -16.359375 -7.101562 -16.390625 -7.28125 -16.390625 Z M 2.296875 -21.390625 C 2.222656 -21.378906 2.222656 -21.414062 2.296875 -21.5 L 5.140625 -22.96875 L 8.1875 -24.546875 L 11.375 -18.390625 C 12.40625 -16.398438 13.195312 -14.863281 13.75 -13.78125 C 14.300781 -12.707031 14.601562 -12.109375 14.65625 -11.984375 C 14.976562 -11.109375 15.140625 -10.242188 15.140625 -9.390625 C 15.140625 -8.535156 14.976562 -7.734375 14.65625 -6.984375 C 14.34375 -6.242188 13.894531 -5.5625 13.3125 -4.9375 C 12.738281 -4.320312 12.050781 -3.804688 11.25 -3.390625 L 10.421875 -2.96875 L 9.53125 -4.765625 L 8.640625 -6.46875 L 8.796875 -6.5625 C 9.171875 -6.863281 9.441406 -7.285156 9.609375 -7.828125 C 9.773438 -8.367188 9.800781 -8.914062 9.6875 -9.46875 C 9.625 -9.675781 8.65625 -11.59375 6.78125 -15.21875 C 4.863281 -18.914062 3.847656 -20.828125 3.734375 -20.953125 C 3.367188 -21.316406 2.890625 -21.460938 2.296875 -21.390625 Z M 2.296875 -21.390625 "/></g></g></g><g fill="#ffffff" fill-opacity="1"><g transform="translate(134.821774, 63.580709)"><g><path d="M -4.421875 -17.484375 C -4.441406 -17.484375 -4.429688 -17.5 -4.390625 -17.53125 C -4.296875 -17.570312 -4.035156 -17.664062 -3.609375 -17.8125 C -3.179688 -17.96875 -2.578125 -18.179688 -1.796875 -18.453125 L 1.03125 -19.4375 L 7.625 -0.5 L 2.515625 1.28125 L -3.9375 -17.21875 L -4.09375 -17.34375 C -4.238281 -17.40625 -4.347656 -17.453125 -4.421875 -17.484375 Z M 2.8125 -20.203125 C 2.976562 -20.265625 3.171875 -20.34375 3.390625 -20.4375 C 3.617188 -20.53125 3.890625 -20.617188 4.203125 -20.703125 C 4.921875 -20.910156 5.585938 -21.054688 6.203125 -21.140625 C 6.828125 -21.234375 7.4375 -21.242188 8.03125 -21.171875 C 8.625 -21.097656 9.203125 -20.9375 9.765625 -20.6875 C 10.328125 -20.445312 10.921875 -20.09375 11.546875 -19.625 C 12.691406 -18.726562 13.664062 -17.59375 14.46875 -16.21875 C 15.195312 -14.957031 15.722656 -13.675781 16.046875 -12.375 C 16.335938 -11.15625 16.425781 -9.96875 16.3125 -8.8125 C 16.207031 -7.664062 15.910156 -6.601562 15.421875 -5.625 C 14.941406 -4.644531 14.269531 -3.785156 13.40625 -3.046875 C 12.539062 -2.304688 11.492188 -1.722656 10.265625 -1.296875 C 9.898438 -1.171875 9.554688 -1.070312 9.234375 -1 C 8.921875 -0.9375 8.617188 -0.90625 8.328125 -0.90625 C 8.242188 -0.894531 8 -1.472656 7.59375 -2.640625 L 6.984375 -4.390625 L 7.796875 -4.671875 C 8.640625 -4.960938 9.300781 -5.335938 9.78125 -5.796875 C 10.257812 -6.253906 10.59375 -6.769531 10.78125 -7.34375 C 10.976562 -7.925781 11.039062 -8.570312 10.96875 -9.28125 C 10.894531 -10 10.738281 -10.773438 10.5 -11.609375 C 10.3125 -12.242188 10.0625 -12.914062 9.75 -13.625 C 9.4375 -14.332031 9.070312 -14.941406 8.65625 -15.453125 C 8.351562 -15.847656 8.007812 -16.132812 7.625 -16.3125 C 7.25 -16.5 6.859375 -16.617188 6.453125 -16.671875 C 6.046875 -16.734375 5.628906 -16.738281 5.203125 -16.6875 C 4.773438 -16.632812 4.351562 -16.539062 3.9375 -16.40625 L 2.90625 -16.078125 L 1.703125 -19.546875 L 2.09375 -19.8125 C 2.351562 -19.988281 2.59375 -20.117188 2.8125 -20.203125 Z M 2.8125 -20.203125 "/></g></g></g><g fill="#ffffff" fill-opacity="1"><g transform="translate(153.506729, 57.334255)"><g><path d="M -2.390625 -17.828125 L -2.640625 -17.890625 L 3.234375 -19.265625 L 7.8125 0.265625 L 2.53125 1.5 L -1.90625 -17.4375 L -2.015625 -17.59375 C -2.109375 -17.71875 -2.234375 -17.796875 -2.390625 -17.828125 Z M -2.390625 -17.828125 "/></g></g></g><g fill="#ffffff" fill-opacity="1"><g transform="translate(161.946284, 54.977185)"><g><path d="M 7.46875 -19.203125 C 7.59375 -19.265625 7.710938 -19.300781 7.828125 -19.3125 C 7.890625 -19.320312 7.957031 -19.332031 8.03125 -19.34375 L 8.140625 -19.390625 L 8.390625 -17.328125 C 8.554688 -15.929688 8.613281 -15.226562 8.5625 -15.21875 C 8.28125 -15.1875 7.890625 -15.015625 7.390625 -14.703125 C 5.921875 -13.765625 5.421875 -11.695312 5.890625 -8.5 C 5.972656 -7.976562 6.101562 -7.394531 6.28125 -6.75 C 6.46875 -6.113281 6.71875 -5.507812 7.03125 -4.9375 C 7.34375 -4.363281 7.738281 -3.878906 8.21875 -3.484375 C 8.695312 -3.097656 9.265625 -2.898438 9.921875 -2.890625 L 10.109375 -2.890625 L 10.375 -0.953125 L 10.625 1.03125 L 10.359375 1.078125 C 9.671875 1.160156 8.972656 1.160156 8.265625 1.078125 C 7.554688 0.992188 6.875 0.832031 6.21875 0.59375 C 5.570312 0.363281 4.953125 0.0507812 4.359375 -0.34375 C 3.773438 -0.738281 3.253906 -1.203125 2.796875 -1.734375 C 1.734375 -2.953125 0.941406 -4.546875 0.421875 -6.515625 C 0.398438 -6.671875 0.367188 -6.890625 0.328125 -7.171875 C 0.296875 -7.453125 0.253906 -7.796875 0.203125 -8.203125 C 0.160156 -8.597656 0.125 -8.9375 0.09375 -9.21875 C 0.0625 -9.5 0.046875 -9.734375 0.046875 -9.921875 C 0.0664062 -10.773438 0.175781 -11.625 0.375 -12.46875 C 0.582031 -13.3125 0.882812 -14.101562 1.28125 -14.84375 C 1.6875 -15.59375 2.1875 -16.265625 2.78125 -16.859375 C 3.382812 -17.460938 4.097656 -17.960938 4.921875 -18.359375 C 5.648438 -18.765625 6.5 -19.046875 7.46875 -19.203125 Z M 9 -17.390625 L 8.75 -19.453125 L 9 -19.484375 C 9.71875 -19.578125 10.429688 -19.566406 11.140625 -19.453125 C 11.859375 -19.347656 12.546875 -19.160156 13.203125 -18.890625 C 13.867188 -18.617188 14.503906 -18.273438 15.109375 -17.859375 C 15.710938 -17.441406 16.238281 -16.953125 16.6875 -16.390625 C 17.78125 -15.109375 18.539062 -13.625 18.96875 -11.9375 C 19.03125 -11.789062 19.078125 -11.578125 19.109375 -11.296875 C 19.148438 -11.023438 19.191406 -10.710938 19.234375 -10.359375 C 19.328125 -9.335938 19.328125 -8.316406 19.234375 -7.296875 C 19.148438 -6.285156 18.890625 -5.300781 18.453125 -4.34375 C 17.859375 -3.019531 17.035156 -1.925781 15.984375 -1.0625 C 14.929688 -0.195312 13.675781 0.410156 12.21875 0.765625 C 12.082031 0.804688 11.960938 0.835938 11.859375 0.859375 C 11.765625 0.878906 11.679688 0.894531 11.609375 0.90625 L 11.40625 0.921875 L 11.25 -0.109375 C 11.144531 -0.753906 11.0625 -1.40625 11 -2.0625 L 10.921875 -3.015625 L 11.25 -3.140625 C 11.875 -3.410156 12.363281 -3.769531 12.71875 -4.21875 C 13.082031 -4.675781 13.335938 -5.179688 13.484375 -5.734375 C 13.640625 -6.296875 13.722656 -6.890625 13.734375 -7.515625 C 13.753906 -8.140625 13.738281 -8.757812 13.6875 -9.375 C 13.570312 -10.695312 13.273438 -11.878906 12.796875 -12.921875 C 12.046875 -14.535156 11.015625 -15.351562 9.703125 -15.375 L 9.265625 -15.40625 Z M 9 -17.390625 "/></g></g></g><g fill="#ffffff" fill-opacity="1"><g transform="translate(318.654453, 192.745378)"><g><path d="M 17.6875 3.5 C 17.6875 3.476562 17.695312 3.503906 17.71875 3.578125 C 17.71875 3.671875 17.691406 3.9375 17.640625 4.375 C 17.585938 4.820312 17.515625 5.46875 17.421875 6.3125 L 17.109375 9.25 L -2.8125 7.0625 L -2.234375 1.796875 L 7.359375 2.859375 C 10.566406 3.203125 12.972656 3.457031 14.578125 3.625 C 16.191406 3.800781 17.035156 3.878906 17.109375 3.859375 C 17.347656 3.835938 17.539062 3.71875 17.6875 3.5 Z M 17.03125 9.953125 L 16.8125 11.90625 C 16.75 12.414062 16.695312 12.84375 16.65625 13.1875 C 16.625 13.53125 16.59375 13.800781 16.5625 14 C 16.519531 14.175781 16.472656 14.351562 16.421875 14.53125 C 16.378906 14.707031 16.316406 14.878906 16.234375 15.046875 C 16.054688 15.503906 15.804688 15.9375 15.484375 16.34375 C 15.160156 16.757812 14.789062 17.128906 14.375 17.453125 C 13.96875 17.773438 13.519531 18.039062 13.03125 18.25 C 12.550781 18.457031 12.078125 18.609375 11.609375 18.703125 C 9.929688 19.035156 8.394531 18.75 7 17.84375 C 6.1875 17.34375 5.535156 16.707031 5.046875 15.9375 C 4.566406 15.164062 4.242188 14.3125 4.078125 13.375 C 3.992188 12.71875 4.03125 11.648438 4.1875 10.171875 L 4.375 8.5625 L 8.109375 8.96875 L 8 10.03125 C 7.925781 10.707031 7.894531 11.132812 7.90625 11.3125 C 8.1875 12.550781 9.035156 13.203125 10.453125 13.265625 C 11.460938 13.328125 12.144531 13.023438 12.5 12.359375 C 12.59375 12.191406 12.691406 11.664062 12.796875 10.78125 L 12.9375 9.5 Z M 17.03125 9.953125 "/></g></g></g><g fill="#ffffff" fill-opacity="1"><g transform="translate(316.896245, 210.028018)"><g><path d="M 17.046875 5.84375 C 17.003906 6.019531 16.960938 6.234375 16.921875 6.484375 C 16.867188 6.691406 16.804688 6.945312 16.734375 7.25 C 16.660156 7.5625 16.570312 7.925781 16.46875 8.34375 L 15.65625 11.609375 L -3.78125 6.71875 L -2.453125 1.4375 L 6.984375 3.8125 L 8.515625 4.203125 C 10.546875 4.710938 12.148438 5.113281 13.328125 5.40625 C 14.515625 5.707031 15.28125 5.890625 15.625 5.953125 C 16.300781 6.109375 16.695312 6.15625 16.8125 6.09375 C 16.84375 6.070312 16.859375 6.0625 16.859375 6.0625 C 16.953125 5.96875 17.015625 5.894531 17.046875 5.84375 Z M 14.234375 16.90625 L 14.359375 16.71875 L 12.921875 22.453125 L -6.515625 17.5625 L -5.21875 12.390625 L 4.25 14.78125 C 10.550781 16.363281 13.765625 17.140625 13.890625 17.109375 C 13.941406 17.109375 14 17.085938 14.0625 17.046875 C 14.132812 17.015625 14.191406 16.96875 14.234375 16.90625 Z M 8.25 10.359375 L 7.125 14.859375 L 3.171875 13.875 L 4.296875 9.375 Z M 8.25 10.359375 "/></g></g></g><g fill="#ffffff" fill-opacity="1"><g transform="translate(312.236617, 229.022379)"><g><path d="M 13.046875 15.96875 C 13.035156 16.101562 13.007812 16.222656 12.96875 16.328125 C 12.9375 16.390625 12.910156 16.453125 12.890625 16.515625 L 12.859375 16.640625 L 10.953125 15.84375 C 9.648438 15.300781 9.007812 15.003906 9.03125 14.953125 C 9.132812 14.691406 9.175781 14.265625 9.15625 13.671875 C 9.0625 11.929688 7.507812 10.476562 4.5 9.3125 C 4 9.125 3.425781 8.953125 2.78125 8.796875 C 2.132812 8.640625 1.484375 8.554688 0.828125 8.546875 C 0.179688 8.535156 -0.425781 8.644531 -1 8.875 C -1.582031 9.101562 -2.039062 9.5 -2.375 10.0625 L -2.453125 10.234375 L -4.28125 9.5 L -6.140625 8.734375 L -6.046875 8.484375 C -5.773438 7.835938 -5.425781 7.226562 -5 6.65625 C -4.582031 6.082031 -4.109375 5.566406 -3.578125 5.109375 C -3.054688 4.660156 -2.476562 4.273438 -1.84375 3.953125 C -1.21875 3.640625 -0.554688 3.414062 0.140625 3.28125 C 1.710938 2.957031 3.484375 3.0625 5.453125 3.59375 C 5.597656 3.644531 5.800781 3.722656 6.0625 3.828125 C 6.332031 3.941406 6.65625 4.078125 7.03125 4.234375 C 7.394531 4.378906 7.707031 4.507812 7.96875 4.625 C 8.226562 4.738281 8.441406 4.84375 8.609375 4.9375 C 9.335938 5.375 10.019531 5.890625 10.65625 6.484375 C 11.289062 7.078125 11.832031 7.726562 12.28125 8.4375 C 12.726562 9.15625 13.066406 9.921875 13.296875 10.734375 C 13.523438 11.546875 13.613281 12.40625 13.5625 13.3125 C 13.539062 14.15625 13.367188 15.039062 13.046875 15.96875 Z M 10.71875 16.40625 L 12.625 17.203125 L 12.53125 17.4375 C 12.25 18.101562 11.878906 18.71875 11.421875 19.28125 C 10.972656 19.851562 10.46875 20.363281 9.90625 20.8125 C 9.351562 21.257812 8.75 21.640625 8.09375 21.953125 C 7.4375 22.265625 6.753906 22.484375 6.046875 22.609375 C 4.390625 22.921875 2.71875 22.847656 1.03125 22.390625 C 0.875 22.367188 0.664062 22.304688 0.40625 22.203125 C 0.15625 22.109375 -0.128906 21.992188 -0.453125 21.859375 C -1.398438 21.429688 -2.289062 20.925781 -3.125 20.34375 C -3.957031 19.757812 -4.6875 19.046875 -5.3125 18.203125 C -6.164062 17.023438 -6.707031 15.769531 -6.9375 14.4375 C -7.175781 13.101562 -7.09375 11.710938 -6.6875 10.265625 C -6.65625 10.117188 -6.625 10 -6.59375 9.90625 C -6.5625 9.8125 -6.53125 9.726562 -6.5 9.65625 L -6.421875 9.46875 L -5.453125 9.828125 C -4.835938 10.054688 -4.234375 10.3125 -3.640625 10.59375 L -2.75 10.984375 L -2.8125 11.328125 C -2.882812 12.015625 -2.804688 12.625 -2.578125 13.15625 C -2.359375 13.695312 -2.046875 14.171875 -1.640625 14.578125 C -1.234375 14.984375 -0.765625 15.34375 -0.234375 15.65625 C 0.296875 15.976562 0.84375 16.269531 1.40625 16.53125 C 2.625 17.082031 3.800781 17.40625 4.9375 17.5 C 6.707031 17.632812 7.929688 17.140625 8.609375 16.015625 L 8.84375 15.671875 Z M 10.71875 16.40625 "/></g></g></g><g fill="#ffffff" fill-opacity="1"><g transform="translate(304.253083, 247.97808)"><g><path d="M 15.296875 9.53125 L 7.375 23.09375 L 3.84375 21.046875 L 11.765625 7.484375 Z M 8.46875 11.296875 L 8.640625 11.25 L 5.75 16.21875 L -7.34375 8.5625 L -4.640625 3.921875 L 1.609375 7.578125 C 3.765625 8.835938 5.382812 9.78125 6.46875 10.40625 C 7.550781 11.039062 8.113281 11.359375 8.15625 11.359375 C 8.226562 11.378906 8.332031 11.359375 8.46875 11.296875 Z M 8.46875 11.296875 "/></g></g></g><g fill="#ffffff" fill-opacity="1"><g transform="translate(296.48925, 261.733195)"><g><path d="M 8.34375 18.84375 C 8.289062 18.976562 8.226562 19.09375 8.15625 19.1875 C 8.113281 19.238281 8.070312 19.289062 8.03125 19.34375 L 8 19.453125 L 6.359375 18.171875 C 5.242188 17.304688 4.703125 16.851562 4.734375 16.8125 C 4.898438 16.59375 5.054688 16.191406 5.203125 15.609375 C 5.578125 13.910156 4.460938 12.097656 1.859375 10.171875 C 1.429688 9.867188 0.925781 9.550781 0.34375 9.21875 C -0.238281 8.882812 -0.84375 8.628906 -1.46875 8.453125 C -2.09375 8.285156 -2.710938 8.226562 -3.328125 8.28125 C -3.941406 8.34375 -4.488281 8.609375 -4.96875 9.078125 L -5.078125 9.203125 L -6.65625 8.03125 L -8.234375 6.796875 L -8.078125 6.59375 C -7.648438 6.039062 -7.15625 5.539062 -6.59375 5.09375 C -6.03125 4.65625 -5.4375 4.285156 -4.8125 3.984375 C -4.1875 3.691406 -3.53125 3.476562 -2.84375 3.34375 C -2.15625 3.207031 -1.453125 3.164062 -0.734375 3.21875 C 0.867188 3.3125 2.550781 3.878906 4.3125 4.921875 C 4.445312 5.003906 4.625 5.132812 4.84375 5.3125 C 5.070312 5.488281 5.347656 5.703125 5.671875 5.953125 C 5.984375 6.191406 6.25 6.398438 6.46875 6.578125 C 6.6875 6.753906 6.863281 6.90625 7 7.03125 C 7.582031 7.65625 8.101562 8.332031 8.5625 9.0625 C 9.019531 9.800781 9.367188 10.578125 9.609375 11.390625 C 9.847656 12.203125 9.96875 13.03125 9.96875 13.875 C 9.96875 14.726562 9.820312 15.582031 9.53125 16.4375 C 9.300781 17.238281 8.90625 18.039062 8.34375 18.84375 Z M 5.984375 18.65625 L 7.625 19.9375 L 7.46875 20.125 C 7.019531 20.695312 6.5 21.195312 5.90625 21.625 C 5.320312 22.0625 4.703125 22.421875 4.046875 22.703125 C 3.398438 22.984375 2.71875 23.1875 2 23.3125 C 1.28125 23.4375 0.5625 23.46875 -0.15625 23.40625 C -1.84375 23.257812 -3.4375 22.742188 -4.9375 21.859375 C -5.082031 21.804688 -5.265625 21.695312 -5.484375 21.53125 C -5.703125 21.363281 -5.953125 21.171875 -6.234375 20.953125 C -7.035156 20.296875 -7.757812 19.578125 -8.40625 18.796875 C -9.0625 18.015625 -9.578125 17.128906 -9.953125 16.140625 C -10.460938 14.785156 -10.648438 13.429688 -10.515625 12.078125 C -10.390625 10.734375 -9.941406 9.414062 -9.171875 8.125 C -9.097656 8 -9.03125 7.890625 -8.96875 7.796875 C -8.914062 7.710938 -8.867188 7.644531 -8.828125 7.59375 L -8.703125 7.421875 L -7.859375 8.046875 C -7.328125 8.429688 -6.8125 8.832031 -6.3125 9.25 L -5.578125 9.859375 L -5.71875 10.1875 C -5.96875 10.820312 -6.050781 11.425781 -5.96875 12 C -5.894531 12.570312 -5.71875 13.109375 -5.4375 13.609375 C -5.164062 14.117188 -4.8125 14.59375 -4.375 15.03125 C -3.945312 15.476562 -3.492188 15.90625 -3.015625 16.3125 C -1.992188 17.175781 -0.953125 17.800781 0.109375 18.1875 C 1.785156 18.789062 3.097656 18.640625 4.046875 17.734375 L 4.390625 17.4375 Z M 5.984375 18.65625 "/></g></g></g><g fill="#ffffff" fill-opacity="1"><g transform="translate(283.397241, 277.953074)"><g/></g></g><g fill="#ffffff" fill-opacity="1"><g transform="translate(280.367744, 281.59095)"><g><path d="M 6.296875 18.75 C 6.265625 18.8125 6.171875 18.914062 6.015625 19.0625 C 5.867188 19.21875 5.660156 19.40625 5.390625 19.625 C 4.960938 19.976562 4.535156 20.304688 4.109375 20.609375 C 3.691406 20.921875 3.257812 21.1875 2.8125 21.40625 C 2.375 21.625 1.898438 21.800781 1.390625 21.9375 C 0.890625 22.070312 0.347656 22.132812 -0.234375 22.125 C -1.171875 22.125 -2.054688 21.890625 -2.890625 21.421875 C -2.960938 21.378906 -3.066406 21.316406 -3.203125 21.234375 C -3.347656 21.148438 -3.492188 21.046875 -3.640625 20.921875 C -3.796875 20.796875 -3.925781 20.695312 -4.03125 20.625 C -4.132812 20.550781 -4.203125 20.492188 -4.234375 20.453125 L -4.328125 20.359375 L -0.4375 16.875 L -0.203125 17.0625 C 0.046875 17.257812 0.320312 17.378906 0.625 17.421875 C 0.925781 17.460938 1.222656 17.453125 1.515625 17.390625 C 1.816406 17.335938 2.101562 17.238281 2.375 17.09375 C 2.65625 16.945312 2.90625 16.773438 3.125 16.578125 C 3.945312 15.835938 4.019531 15.066406 3.34375 14.265625 C 3.070312 13.960938 2.675781 13.835938 2.15625 13.890625 C 1.632812 13.953125 0.859375 14.226562 -0.171875 14.71875 C -1.003906 15.09375 -1.71875 15.40625 -2.3125 15.65625 C -2.914062 15.90625 -3.441406 16.097656 -3.890625 16.234375 C -4.304688 16.347656 -4.691406 16.429688 -5.046875 16.484375 C -5.410156 16.535156 -5.75 16.554688 -6.0625 16.546875 C -6.882812 16.515625 -7.664062 16.316406 -8.40625 15.953125 C -9.144531 15.597656 -9.773438 15.101562 -10.296875 14.46875 C -11.015625 13.5625 -11.441406 12.644531 -11.578125 11.71875 C -11.710938 10.789062 -11.644531 9.882812 -11.375 9 C -11.101562 8.113281 -10.664062 7.265625 -10.0625 6.453125 C -9.46875 5.640625 -8.800781 4.882812 -8.0625 4.1875 C -7.382812 3.582031 -6.679688 3.082031 -5.953125 2.6875 C -5.222656 2.300781 -4.476562 2.039062 -3.71875 1.90625 C -2.96875 1.78125 -2.195312 1.800781 -1.40625 1.96875 C -0.625 2.144531 0.160156 2.5 0.953125 3.03125 C 1.484375 3.351562 1.84375 3.625 2.03125 3.84375 C 2.070312 3.882812 1.425781 4.484375 0.09375 5.640625 L -1.90625 7.4375 L -2.1875 7.1875 C -2.59375 6.875 -3.0625 6.6875 -3.59375 6.625 C -4.125 6.5625 -4.609375 6.625 -5.046875 6.8125 C -5.160156 6.875 -5.285156 6.953125 -5.421875 7.046875 C -5.554688 7.140625 -5.695312 7.253906 -5.84375 7.390625 C -6.164062 7.679688 -6.425781 8.023438 -6.625 8.421875 C -6.820312 8.816406 -6.835938 9.242188 -6.671875 9.703125 C -6.546875 10.097656 -6.269531 10.425781 -5.84375 10.6875 C -5.394531 10.976562 -4.988281 11.109375 -4.625 11.078125 C -4.207031 11.046875 -3.304688 10.6875 -1.921875 10 C -1.242188 9.65625 -0.628906 9.367188 -0.078125 9.140625 C 0.460938 8.910156 0.945312 8.734375 1.375 8.609375 C 2.632812 8.242188 3.722656 8.207031 4.640625 8.5 C 5.554688 8.789062 6.441406 9.453125 7.296875 10.484375 C 7.847656 11.140625 8.21875 11.800781 8.40625 12.46875 C 8.601562 13.144531 8.660156 13.816406 8.578125 14.484375 C 8.503906 15.160156 8.304688 15.820312 7.984375 16.46875 C 7.660156 17.125 7.238281 17.742188 6.71875 18.328125 C 6.632812 18.398438 6.550781 18.484375 6.46875 18.578125 C 6.382812 18.671875 6.328125 18.726562 6.296875 18.75 Z M 6.296875 18.75 "/></g></g></g><g fill="#ffffff" fill-opacity="1"><g transform="translate(267.422308, 293.222527)"><g><path d="M 9.859375 15.078125 L -3.015625 24.0625 L -5.34375 20.71875 L 7.53125 11.734375 Z M 2.9375 13.8125 L 3.125 13.84375 L -1.59375 17.140625 L -10.265625 4.6875 L -5.859375 1.609375 L -1.71875 7.5625 C -0.289062 9.601562 0.773438 11.140625 1.484375 12.171875 C 2.203125 13.203125 2.582031 13.722656 2.625 13.734375 C 2.675781 13.785156 2.78125 13.8125 2.9375 13.8125 Z M 2.9375 13.8125 "/></g></g></g><g fill="#ffffff" fill-opacity="1"><g transform="translate(254.550086, 302.416043)"><g><path d="M 7.28125 16.390625 L 7.53125 16.390625 L 1.671875 19.4375 L -1.640625 13.109375 L -4.875 6.859375 L -5.21875 6.578125 C -5.800781 5.984375 -6.613281 5.773438 -7.65625 5.953125 C -7.875 6.046875 -8.007812 6.046875 -8.0625 5.953125 C -8.070312 5.910156 -8.148438 5.75 -8.296875 5.46875 C -8.441406 5.1875 -8.644531 4.769531 -8.90625 4.21875 L -9.75 2.59375 C -9.09375 2.257812 -8.414062 1.953125 -7.71875 1.671875 C -7.019531 1.390625 -6.285156 1.265625 -5.515625 1.296875 C -4.640625 1.265625 -3.789062 1.40625 -2.96875 1.71875 C -2.15625 2.039062 -1.445312 2.503906 -0.84375 3.109375 C -0.664062 3.296875 -0.5 3.492188 -0.34375 3.703125 C -0.1875 3.921875 -0.03125 4.15625 0.125 4.40625 C 0.269531 4.644531 0.585938 5.226562 1.078125 6.15625 C 1.566406 7.09375 2.222656 8.347656 3.046875 9.921875 L 3.625 11.046875 C 4.28125 12.335938 4.804688 13.359375 5.203125 14.109375 C 5.597656 14.867188 5.859375 15.351562 5.984375 15.5625 C 6.222656 15.957031 6.453125 16.203125 6.671875 16.296875 C 6.898438 16.359375 7.101562 16.390625 7.28125 16.390625 Z M -2.296875 21.390625 C -2.222656 21.378906 -2.222656 21.414062 -2.296875 21.5 L -5.140625 22.96875 L -8.1875 24.546875 L -11.375 18.390625 C -12.40625 16.398438 -13.195312 14.863281 -13.75 13.78125 C -14.300781 12.707031 -14.601562 12.109375 -14.65625 11.984375 C -14.976562 11.109375 -15.140625 10.242188 -15.140625 9.390625 C -15.140625 8.535156 -14.976562 7.734375 -14.65625 6.984375 C -14.34375 6.242188 -13.894531 5.5625 -13.3125 4.9375 C -12.738281 4.320312 -12.050781 3.804688 -11.25 3.390625 L -10.421875 2.96875 L -9.53125 4.765625 L -8.640625 6.46875 L -8.796875 6.5625 C -9.171875 6.863281 -9.441406 7.285156 -9.609375 7.828125 C -9.773438 8.367188 -9.800781 8.914062 -9.6875 9.46875 C -9.625 9.675781 -8.65625 11.59375 -6.78125 15.21875 C -4.863281 18.914062 -3.847656 20.828125 -3.734375 20.953125 C -3.367188 21.316406 -2.890625 21.460938 -2.296875 21.390625 Z M -2.296875 21.390625 "/></g></g></g><g fill="#ffffff" fill-opacity="1"><g transform="translate(237.366047, 311.41576)"><g><path d="M 4.421875 17.484375 C 4.441406 17.484375 4.429688 17.5 4.390625 17.53125 C 4.296875 17.570312 4.035156 17.664062 3.609375 17.8125 C 3.179688 17.96875 2.578125 18.179688 1.796875 18.453125 L -1.03125 19.4375 L -7.625 0.5 L -2.515625 -1.28125 L 3.9375 17.21875 L 4.09375 17.34375 C 4.238281 17.40625 4.347656 17.453125 4.421875 17.484375 Z M -2.8125 20.203125 C -2.976562 20.265625 -3.171875 20.34375 -3.390625 20.4375 C -3.617188 20.53125 -3.890625 20.617188 -4.203125 20.703125 C -4.921875 20.910156 -5.585938 21.054688 -6.203125 21.140625 C -6.828125 21.234375 -7.4375 21.242188 -8.03125 21.171875 C -8.625 21.097656 -9.203125 20.9375 -9.765625 20.6875 C -10.328125 20.445312 -10.921875 20.09375 -11.546875 19.625 C -12.691406 18.726562 -13.664062 17.59375 -14.46875 16.21875 C -15.195312 14.957031 -15.722656 13.675781 -16.046875 12.375 C -16.335938 11.15625 -16.425781 9.96875 -16.3125 8.8125 C -16.207031 7.664062 -15.910156 6.601562 -15.421875 5.625 C -14.941406 4.644531 -14.269531 3.785156 -13.40625 3.046875 C -12.539062 2.304688 -11.492188 1.722656 -10.265625 1.296875 C -9.898438 1.171875 -9.554688 1.070312 -9.234375 1 C -8.921875 0.9375 -8.617188 0.90625 -8.328125 0.90625 C -8.242188 0.894531 -8 1.472656 -7.59375 2.640625 L -6.984375 4.390625 L -7.796875 4.671875 C -8.640625 4.960938 -9.300781 5.335938 -9.78125 5.796875 C -10.257812 6.253906 -10.59375 6.769531 -10.78125 7.34375 C -10.976562 7.925781 -11.039062 8.570312 -10.96875 9.28125 C -10.894531 10 -10.738281 10.773438 -10.5 11.609375 C -10.3125 12.242188 -10.0625 12.914062 -9.75 13.625 C -9.4375 14.332031 -9.070312 14.941406 -8.65625 15.453125 C -8.351562 15.847656 -8.007812 16.132812 -7.625 16.3125 C -7.25 16.5 -6.859375 16.617188 -6.453125 16.671875 C -6.046875 16.734375 -5.628906 16.738281 -5.203125 16.6875 C -4.773438 16.632812 -4.351562 16.539062 -3.9375 16.40625 L -2.90625 16.078125 L -1.703125 19.546875 L -2.09375 19.8125 C -2.351562 19.988281 -2.59375 20.117188 -2.8125 20.203125 Z M -2.8125 20.203125 "/></g></g></g><g fill="#ffffff" fill-opacity="1"><g transform="translate(218.681105, 317.662224)"><g><path d="M 2.390625 17.828125 L 2.640625 17.890625 L -3.234375 19.265625 L -7.8125 -0.265625 L -2.53125 -1.5 L 1.90625 17.4375 L 2.015625 17.59375 C 2.109375 17.71875 2.234375 17.796875 2.390625 17.828125 Z M 2.390625 17.828125 "/></g></g></g><g fill="#ffffff" fill-opacity="1"><g transform="translate(210.241537, 320.019264)"><g><path d="M -7.46875 19.203125 C -7.59375 19.265625 -7.710938 19.300781 -7.828125 19.3125 C -7.890625 19.320312 -7.957031 19.332031 -8.03125 19.34375 L -8.140625 19.390625 L -8.390625 17.328125 C -8.554688 15.929688 -8.613281 15.226562 -8.5625 15.21875 C -8.28125 15.1875 -7.890625 15.015625 -7.390625 14.703125 C -5.921875 13.765625 -5.421875 11.695312 -5.890625 8.5 C -5.972656 7.976562 -6.101562 7.394531 -6.28125 6.75 C -6.46875 6.113281 -6.71875 5.507812 -7.03125 4.9375 C -7.34375 4.363281 -7.738281 3.878906 -8.21875 3.484375 C -8.695312 3.097656 -9.265625 2.898438 -9.921875 2.890625 L -10.109375 2.890625 L -10.375 0.953125 L -10.625 -1.03125 L -10.359375 -1.078125 C -9.671875 -1.160156 -8.972656 -1.160156 -8.265625 -1.078125 C -7.554688 -0.992188 -6.875 -0.832031 -6.21875 -0.59375 C -5.570312 -0.363281 -4.953125 -0.0507812 -4.359375 0.34375 C -3.773438 0.738281 -3.253906 1.203125 -2.796875 1.734375 C -1.734375 2.953125 -0.941406 4.546875 -0.421875 6.515625 C -0.398438 6.671875 -0.367188 6.890625 -0.328125 7.171875 C -0.296875 7.453125 -0.253906 7.796875 -0.203125 8.203125 C -0.160156 8.597656 -0.125 8.9375 -0.09375 9.21875 C -0.0625 9.5 -0.046875 9.734375 -0.046875 9.921875 C -0.0664062 10.773438 -0.175781 11.625 -0.375 12.46875 C -0.582031 13.3125 -0.882812 14.101562 -1.28125 14.84375 C -1.6875 15.59375 -2.1875 16.265625 -2.78125 16.859375 C -3.382812 17.460938 -4.097656 17.960938 -4.921875 18.359375 C -5.648438 18.765625 -6.5 19.046875 -7.46875 19.203125 Z M -9 17.390625 L -8.75 19.453125 L -9 19.484375 C -9.71875 19.578125 -10.429688 19.566406 -11.140625 19.453125 C -11.859375 19.347656 -12.546875 19.160156 -13.203125 18.890625 C -13.867188 18.617188 -14.503906 18.273438 -15.109375 17.859375 C -15.710938 17.441406 -16.238281 16.953125 -16.6875 16.390625 C -17.78125 15.109375 -18.539062 13.625 -18.96875 11.9375 C -19.03125 11.789062 -19.078125 11.578125 -19.109375 11.296875 C -19.148438 11.023438 -19.191406 10.710938 -19.234375 10.359375 C -19.328125 9.335938 -19.328125 8.316406 -19.234375 7.296875 C -19.148438 6.285156 -18.890625 5.300781 -18.453125 4.34375 C -17.859375 3.019531 -17.035156 1.925781 -15.984375 1.0625 C -14.929688 0.195312 -13.675781 -0.410156 -12.21875 -0.765625 C -12.082031 -0.804688 -11.960938 -0.835938 -11.859375 -0.859375 C -11.765625 -0.878906 -11.679688 -0.894531 -11.609375 -0.90625 L -11.40625 -0.921875 L -11.25 0.109375 C -11.144531 0.753906 -11.0625 1.40625 -11 2.0625 L -10.921875 3.015625 L -11.25 3.140625 C -11.875 3.410156 -12.363281 3.769531 -12.71875 4.21875 C -13.082031 4.675781 -13.335938 5.179688 -13.484375 5.734375 C -13.640625 6.296875 -13.722656 6.890625 -13.734375 7.515625 C -13.753906 8.140625 -13.738281 8.757812 -13.6875 9.375 C -13.570312 10.695312 -13.273438 11.878906 -12.796875 12.921875 C -12.046875 14.535156 -11.015625 15.351562 -9.703125 15.375 L -9.265625 15.40625 Z M -9 17.390625 "/></g></g></g></svg>